<mxfile modified="2022-10-22T03:30:25.878Z" host="app.diagrams.net" agent="5.0 (Windows NT 10.0; Win64; x64) AppleWebKit/537.36 (KHTML, like Gecko) Chrome/106.0.0.0 Safari/537.36 Edg/106.0.1370.42" etag="pQbSRXiTQzbgX_Yw_6OS" compressed="false" version="20.4.0" type="device">
  <diagram id="Ux_qAKnXtM9eznr3yVb0" name="Aspects (HL)">
    <mxGraphModel dx="1635" dy="956" grid="1" gridSize="10" guides="1" tooltips="1" connect="1" arrows="1" fold="1" page="1" pageScale="1" pageWidth="827" pageHeight="1169" math="0" shadow="0">
      <root>
        <mxCell id="w_mSo7QCuJ4LZL2d0cJ3-0" />
        <mxCell id="w_mSo7QCuJ4LZL2d0cJ3-1" parent="w_mSo7QCuJ4LZL2d0cJ3-0" />
        <mxCell id="w_mSo7QCuJ4LZL2d0cJ3-2" value="Expected Methodologies to use" style="rounded=0;whiteSpace=wrap;html=1;fillColor=#f5f5f5;strokeColor=#666666;fontColor=#333333;" parent="w_mSo7QCuJ4LZL2d0cJ3-1" vertex="1">
          <mxGeometry x="120" y="200" width="80" height="40" as="geometry" />
        </mxCell>
        <mxCell id="w_mSo7QCuJ4LZL2d0cJ3-3" value="Expectations / Deliverables" style="rounded=0;whiteSpace=wrap;html=1;fillColor=#f5f5f5;strokeColor=#666666;fontColor=#333333;" parent="w_mSo7QCuJ4LZL2d0cJ3-1" vertex="1">
          <mxGeometry x="210" y="200" width="80" height="40" as="geometry" />
        </mxCell>
        <mxCell id="w_mSo7QCuJ4LZL2d0cJ3-4" value="Processes" style="rounded=0;whiteSpace=wrap;html=1;" parent="w_mSo7QCuJ4LZL2d0cJ3-1" vertex="1">
          <mxGeometry x="120" y="250" width="80" height="40" as="geometry" />
        </mxCell>
        <mxCell id="w_mSo7QCuJ4LZL2d0cJ3-5" value="Registers &amp;amp; Reports" style="rounded=0;whiteSpace=wrap;html=1;" parent="w_mSo7QCuJ4LZL2d0cJ3-1" vertex="1">
          <mxGeometry x="210" y="250" width="80" height="40" as="geometry" />
        </mxCell>
        <mxCell id="w_mSo7QCuJ4LZL2d0cJ3-6" value="Systems &amp;amp; Tools" style="rounded=0;whiteSpace=wrap;html=1;fillColor=#f5f5f5;strokeColor=#666666;fontColor=#333333;" parent="w_mSo7QCuJ4LZL2d0cJ3-1" vertex="1">
          <mxGeometry x="480" y="200" width="80" height="40" as="geometry" />
        </mxCell>
        <mxCell id="w_mSo7QCuJ4LZL2d0cJ3-7" value="Risks" style="rounded=0;whiteSpace=wrap;html=1;fillColor=#f5f5f5;strokeColor=#666666;fontColor=#333333;" parent="w_mSo7QCuJ4LZL2d0cJ3-1" vertex="1">
          <mxGeometry x="570" y="200" width="80" height="40" as="geometry" />
        </mxCell>
        <mxCell id="w_mSo7QCuJ4LZL2d0cJ3-8" value="Services" style="rounded=0;whiteSpace=wrap;html=1;" parent="w_mSo7QCuJ4LZL2d0cJ3-1" vertex="1">
          <mxGeometry x="210" y="300" width="80" height="40" as="geometry" />
        </mxCell>
        <mxCell id="w_mSo7QCuJ4LZL2d0cJ3-9" value="Events" style="rounded=0;whiteSpace=wrap;html=1;fillColor=#f5f5f5;strokeColor=#666666;fontColor=#333333;" parent="w_mSo7QCuJ4LZL2d0cJ3-1" vertex="1">
          <mxGeometry x="300" y="200" width="80" height="40" as="geometry" />
        </mxCell>
        <mxCell id="w_mSo7QCuJ4LZL2d0cJ3-10" value="&lt;font style=&quot;font-size: 12px&quot;&gt;Diagram: Delivery - Aspects requiring attention (HL)&lt;/font&gt;" style="text;strokeColor=none;fillColor=none;html=1;fontSize=24;fontStyle=2;verticalAlign=middle;align=left;shadow=0;glass=0;comic=0;opacity=30;fontColor=#808080;" parent="w_mSo7QCuJ4LZL2d0cJ3-1" vertex="1">
          <mxGeometry x="120" y="460" width="520" height="20" as="geometry" />
        </mxCell>
        <mxCell id="w_mSo7QCuJ4LZL2d0cJ3-11" value="Constraints /&amp;nbsp;&lt;br&gt;Resources" style="rounded=0;whiteSpace=wrap;html=1;fillColor=#f5f5f5;strokeColor=#666666;fontColor=#333333;" parent="w_mSo7QCuJ4LZL2d0cJ3-1" vertex="1">
          <mxGeometry x="390" y="200" width="80" height="40" as="geometry" />
        </mxCell>
        <mxCell id="w_mSo7QCuJ4LZL2d0cJ3-12" value="Budgets" style="rounded=0;whiteSpace=wrap;html=1;" parent="w_mSo7QCuJ4LZL2d0cJ3-1" vertex="1">
          <mxGeometry x="390" y="350" width="80" height="40" as="geometry" />
        </mxCell>
        <mxCell id="w_mSo7QCuJ4LZL2d0cJ3-13" value="Schedule" style="rounded=0;whiteSpace=wrap;html=1;" parent="w_mSo7QCuJ4LZL2d0cJ3-1" vertex="1">
          <mxGeometry x="390" y="250" width="80" height="40" as="geometry" />
        </mxCell>
        <mxCell id="w_mSo7QCuJ4LZL2d0cJ3-14" value="Capabilities" style="rounded=0;whiteSpace=wrap;html=1;" parent="w_mSo7QCuJ4LZL2d0cJ3-1" vertex="1">
          <mxGeometry x="390" y="400" width="80" height="40" as="geometry" />
        </mxCell>
        <mxCell id="w_mSo7QCuJ4LZL2d0cJ3-15" value="&lt;p style=&quot;line-height: 90%&quot;&gt;Service Development Management (ALM)&lt;/p&gt;" style="rounded=0;whiteSpace=wrap;html=1;" parent="w_mSo7QCuJ4LZL2d0cJ3-1" vertex="1">
          <mxGeometry x="480" y="300" width="80" height="40" as="geometry" />
        </mxCell>
        <mxCell id="w_mSo7QCuJ4LZL2d0cJ3-16" value="Stakeholder Issue Management" style="rounded=0;whiteSpace=wrap;html=1;" parent="w_mSo7QCuJ4LZL2d0cJ3-1" vertex="1">
          <mxGeometry x="480" y="250" width="80" height="40" as="geometry" />
        </mxCell>
        <mxCell id="w_mSo7QCuJ4LZL2d0cJ3-17" value="Dependencies" style="rounded=0;whiteSpace=wrap;html=1;" parent="w_mSo7QCuJ4LZL2d0cJ3-1" vertex="1">
          <mxGeometry x="390" y="300" width="80" height="40" as="geometry" />
        </mxCell>
        <mxCell id="w_mSo7QCuJ4LZL2d0cJ3-18" value="Certification &amp;amp; Accreditation" style="rounded=0;whiteSpace=wrap;html=1;" parent="w_mSo7QCuJ4LZL2d0cJ3-1" vertex="1">
          <mxGeometry x="300" y="250" width="80" height="40" as="geometry" />
        </mxCell>
        <mxCell id="w_mSo7QCuJ4LZL2d0cJ3-19" value="Documentation" style="rounded=0;whiteSpace=wrap;html=1;" parent="w_mSo7QCuJ4LZL2d0cJ3-1" vertex="1">
          <mxGeometry x="210" y="400" width="80" height="40" as="geometry" />
        </mxCell>
        <mxCell id="w_mSo7QCuJ4LZL2d0cJ3-21" value="Qualities" style="rounded=0;whiteSpace=wrap;html=1;" parent="w_mSo7QCuJ4LZL2d0cJ3-1" vertex="1">
          <mxGeometry x="210" y="350" width="80" height="40" as="geometry" />
        </mxCell>
      </root>
    </mxGraphModel>
  </diagram>
</mxfile>
